<svg width="60" height="50" viewBox="0 0 60 50" fill="none" xmlns="http://www.w3.org/2000/svg">
<path d="M37.8051 24.4517C37.1401 24.2767 36.3585 24.1833 35.4251 24.1833C34.1301 24.1833 33.6518 24.4983 32.9868 25C32.9518 25.0233 32.9168 25.0583 32.8818 25.0933L31.7735 26.2717C30.8518 27.2633 29.1601 27.2633 28.2268 26.2717L27.1185 25.105C27.0896 25.0644 27.0541 25.0289 27.0135 25C26.3368 24.4983 25.8585 24.1833 24.5751 24.1833C23.6418 24.1833 22.8601 24.265 22.1951 24.4517C19.4185 25.1983 19.4185 27.4033 19.4185 29.34V30.425C19.4185 33.3533 19.4185 36.6667 25.6601 36.6667H34.3401C38.4818 36.6667 40.5818 34.5667 40.5818 30.425V29.34C40.5818 27.4033 40.5818 25.1983 37.8051 24.4517Z" fill="white"/>
<path d="M33.255 13.3333H26.745C21.5884 13.3333 21.5884 16.075 21.5884 18.49V22.8067C21.635 22.7833 21.6934 22.7717 21.74 22.76C22.5567 22.5383 23.4784 22.4333 24.575 22.4333C26.3717 22.4333 27.2234 22.9583 28.0634 23.6C28.18 23.6817 28.2967 23.7867 28.4017 23.9033L29.4984 25.0583C29.615 25.1867 29.8017 25.2567 30 25.2567C30.1984 25.2567 30.385 25.1867 30.49 25.07L31.61 23.8917C31.7034 23.7983 31.8084 23.6933 31.925 23.6117C32.7884 22.9583 33.6284 22.4333 35.425 22.4333C36.5217 22.4333 37.4434 22.5383 38.26 22.76C38.3067 22.7717 38.365 22.7833 38.4117 22.8067V18.49C38.4117 16.075 38.4117 13.3333 33.255 13.3333ZM31.8084 20.9167H28.1917C27.7484 20.9167 27.375 20.5433 27.375 20.1C27.375 19.645 27.7484 19.2833 28.1917 19.2833H31.8084C32.2517 19.2833 32.625 19.645 32.625 20.1C32.625 20.5433 32.2517 20.9167 31.8084 20.9167ZM32.7184 17.6617H27.2817C27.0671 17.6586 26.8624 17.5712 26.7118 17.4184C26.5611 17.2656 26.4767 17.0596 26.4767 16.845C26.4767 16.39 26.8384 16.0283 27.2817 16.0283H32.7184C33.1617 16.0283 33.5234 16.39 33.5234 16.845C33.5234 17.0596 33.439 17.2656 33.2883 17.4184C33.1377 17.5712 32.9329 17.6586 32.7184 17.6617Z" fill="white"/>
</svg>
