<svg width="60" height="50" viewBox="0 0 60 50" fill="none" xmlns="http://www.w3.org/2000/svg">
<rect width="60" height="50" rx="10" fill="#6359E9"/>
<path d="M41.0832 23.7167V15.7833C41.0832 14.0333 40.3365 13.3333 38.4815 13.3333H33.7682C31.9132 13.3333 31.1665 14.0333 31.1665 15.7833V23.7167C31.1665 25.4667 31.9132 26.1667 33.7682 26.1667H38.4815C40.3365 26.1667 41.0832 25.4667 41.0832 23.7167ZM28.8332 26.2833V34.2167C28.8332 35.9667 28.0865 36.6667 26.2315 36.6667H21.5182C19.6632 36.6667 18.9165 35.9667 18.9165 34.2167V26.2833C18.9165 24.5333 19.6632 23.8333 21.5182 23.8333H26.2315C28.0865 23.8333 28.8332 24.5333 28.8332 26.2833ZM41.0832 34.2167V30.95C41.0832 29.2 40.3365 28.5 38.4815 28.5H33.7682C31.9132 28.5 31.1665 29.2 31.1665 30.95V34.2167C31.1665 35.9667 31.9132 36.6667 33.7682 36.6667H38.4815C40.3365 36.6667 41.0832 35.9667 41.0832 34.2167ZM28.8332 19.05V15.7833C28.8332 14.0333 28.0865 13.3333 26.2315 13.3333H21.5182C19.6632 13.3333 18.9165 14.0333 18.9165 15.7833V19.05C18.9165 20.8 19.6632 21.5 21.5182 21.5H26.2315C28.0865 21.5 28.8332 20.8 28.8332 19.05Z" fill="white"/>
</svg>
