<svg width="60" height="50" viewBox="0 0 60 50" fill="none" xmlns="http://www.w3.org/2000/svg">
<path d="M30.7885 34.2855C31.1093 34.3602 31.1385 34.7802 30.8258 34.884L28.9825 35.4907C24.3508 36.984 21.9125 35.7357 20.4075 31.104L18.9141 26.4957C17.4208 21.864 18.6575 19.414 23.2891 17.9207L23.9005 17.7177C24.3706 17.5625 24.828 18.0338 24.6938 18.511C24.6285 18.7467 24.5655 18.994 24.5025 19.2507L23.3591 24.139C22.0758 29.634 23.9541 32.6673 29.4491 33.974L30.7885 34.2855Z" fill="white"/>
<path d="M36.0316 14.7438L34.0832 14.2888C30.1866 13.3672 27.8649 14.1255 26.4999 16.9488C26.1499 17.6605 25.8699 18.5238 25.6366 19.5155L24.4932 24.4038C23.3499 29.2805 24.8549 31.6838 29.7199 32.8388L31.6799 33.3055C32.3566 33.4688 32.9866 33.5738 33.5699 33.6205C37.2099 33.9705 39.1466 32.2672 40.1266 28.0555L41.2699 23.1788C42.4132 18.3022 40.9199 15.8872 36.0316 14.7438ZM33.8382 26.5505C33.7332 26.9472 33.3832 27.2038 32.9866 27.2038C32.9166 27.2038 32.8466 27.1922 32.7649 27.1805L29.3699 26.3172C29.1594 26.2477 28.983 26.101 28.8765 25.9066C28.77 25.7122 28.7413 25.4846 28.7961 25.2698C28.8509 25.0551 28.9852 24.8691 29.1718 24.7495C29.3584 24.6299 29.5835 24.5856 29.8016 24.6255L33.1966 25.4888C33.6749 25.6055 33.9549 26.0838 33.8382 26.5505ZM37.2566 22.6072C37.1516 23.0038 36.8016 23.2605 36.4049 23.2605C36.3349 23.2605 36.2649 23.2488 36.1832 23.2372L30.5249 21.8022C30.3144 21.7327 30.138 21.586 30.0315 21.3916C29.925 21.1972 29.8963 20.9696 29.9511 20.7548C30.0059 20.5401 30.1402 20.3541 30.3268 20.2345C30.5134 20.1149 30.7385 20.0706 30.9566 20.1105L36.6149 21.5455C37.0932 21.6505 37.3732 22.1288 37.2566 22.6072Z" fill="white"/>
</svg>
