<svg width="60" height="50" viewBox="0 0 60 50" fill="none" xmlns="http://www.w3.org/2000/svg">
<path d="M22.9998 26.1667C19.7798 26.1667 17.1665 28.7683 17.1665 32C17.1665 35.2317 19.7798 37.8333 22.9998 37.8333C26.2198 37.8333 28.8332 35.22 28.8332 32C28.8332 28.78 26.2315 26.1667 22.9998 26.1667ZM20.6198 29.62H22.9998C23.2102 29.62 23.412 29.7036 23.5608 29.8524C23.7096 30.0011 23.7932 30.2029 23.7932 30.4133C23.7932 30.6237 23.7096 30.8255 23.5608 30.9743C23.412 31.1231 23.2102 31.2067 22.9998 31.2067H20.6198C20.4094 31.2067 20.2076 31.1231 20.0589 30.9743C19.9101 30.8255 19.8265 30.6237 19.8265 30.4133C19.8265 30.2029 19.9101 30.0011 20.0589 29.8524C20.2076 29.7036 20.4094 29.62 20.6198 29.62ZM25.3798 34.38H20.6198C20.4094 34.38 20.2076 34.2964 20.0589 34.1476C19.9101 33.9989 19.8265 33.7971 19.8265 33.5867C19.8265 33.155 20.1882 32.7933 20.6198 32.7933H25.3915C25.8348 32.7933 26.1848 33.155 26.1848 33.5867C26.1848 34.0183 25.8232 34.38 25.3798 34.38Z" fill="white"/>
<path d="M35.8335 14.5H24.1668C20.6668 14.5 18.3335 16.25 18.3335 20.3333V23.9967C18.3335 24.8483 19.2085 25.385 19.9902 25.0467C21.3331 24.4638 22.816 24.2815 24.2602 24.5217C27.3168 25.0233 29.8135 27.4383 30.4318 30.4717C30.6068 31.3583 30.6302 32.2217 30.5135 33.05C30.4202 33.7383 30.9802 34.345 31.6685 34.345H35.8335C39.3335 34.345 41.6668 32.595 41.6668 28.5117V20.3333C41.6668 16.25 39.3335 14.5 35.8335 14.5ZM36.3818 21.0217L32.7302 23.9383C31.9602 24.5567 30.9802 24.86 30.0002 24.86C29.0202 24.86 28.0285 24.5567 27.2702 23.9383L23.6185 21.0217C23.44 20.8735 23.3257 20.662 23.2996 20.4315C23.2736 20.201 23.3376 19.9693 23.4785 19.785C23.7818 19.4117 24.3302 19.3417 24.7035 19.645L28.3552 22.5617C29.2418 23.2733 30.7468 23.2733 31.6335 22.5617L35.2852 19.645C35.6585 19.3417 36.2185 19.4 36.5102 19.785C36.8135 20.1583 36.7552 20.7183 36.3818 21.0217Z" fill="white"/>
</svg>
