<svg width="60" height="50" viewBox="0 0 60 50" fill="none" xmlns="http://www.w3.org/2000/svg">
<path d="M26.5 13.3333C23.4433 13.3333 20.9583 15.8183 20.9583 18.875C20.9583 21.8733 23.3033 24.3 26.36 24.405C26.4533 24.3933 26.5466 24.3933 26.6166 24.405H26.6983C28.1325 24.3571 29.492 23.7534 30.4891 22.7214C31.4863 21.6894 32.043 20.31 32.0416 18.875C32.0416 15.8183 29.5566 13.3333 26.5 13.3333ZM32.4266 27.5072C29.1716 25.3372 23.8633 25.3372 20.585 27.5072C19.1033 28.4988 18.2866 29.8405 18.2866 31.2755C18.2866 32.7105 19.1033 34.0405 20.5733 35.0205C22.2066 36.1172 24.3533 36.6655 26.5 36.6655C28.6466 36.6655 30.7933 36.1172 32.4266 35.0205C33.8966 34.0288 34.7133 32.6988 34.7133 31.2522C34.7016 29.8172 33.8966 28.4872 32.4266 27.5072ZM39.3216 19.561C39.5083 21.8243 37.8983 23.8077 35.67 24.076H35.6116C35.5416 24.076 35.4716 24.076 35.4133 24.0993C34.2816 24.1577 33.2433 23.796 32.4616 23.131C33.6633 22.0577 34.3516 20.4477 34.2116 18.6977C34.1316 17.7877 33.8225 16.9127 33.3133 16.1543C33.9246 15.8569 34.5991 15.7127 35.2786 15.7341C35.9581 15.7555 36.6222 15.9419 37.2135 16.2772C37.8049 16.6126 38.3058 17.0867 38.6731 17.6588C39.0404 18.2309 39.2629 18.8837 39.3216 19.561Z" fill="white"/>
<path d="M41.6527 30.355C41.5593 31.4867 40.836 32.4667 39.6227 33.1317C38.456 33.7733 36.986 34.0767 35.5277 34.0417C36.3677 33.2833 36.8577 32.3383 36.951 31.335C37.0677 29.8883 36.3793 28.5 35.0027 27.3917C34.221 26.7733 33.311 26.2833 32.3193 25.9217C34.8977 25.175 38.141 25.6767 40.136 27.2867C41.2093 28.15 41.7577 29.235 41.6527 30.355Z" fill="white"/>
</svg>
