<svg width="60" height="50" viewBox="0 0 60 50" fill="none" xmlns="http://www.w3.org/2000/svg">
<path d="M38.5631 27.905L37.3964 25.9683C37.1514 25.5367 36.9298 24.72 36.9298 24.2417V21.29C36.9284 19.988 36.5584 18.7131 35.8626 17.6126C35.1668 16.5122 34.1737 15.6312 32.9981 15.0717C32.6981 14.5389 32.2604 14.0965 31.7309 13.7907C31.2014 13.4849 30.5995 13.327 29.9881 13.3333C28.7164 13.3333 27.5731 14.0217 26.9664 15.1067C24.6914 16.2383 23.1164 18.5833 23.1164 21.29V24.2417C23.1164 24.72 22.8948 25.5367 22.6498 25.9567L21.4714 27.905C21.0048 28.6867 20.8998 29.55 21.1914 30.3433C21.4714 31.125 22.1364 31.7317 22.9998 32.0233C25.2631 32.7933 27.6431 33.1667 30.0231 33.1667C32.4031 33.1667 34.7831 32.7933 37.0464 32.035C37.8631 31.7667 38.4931 31.1483 38.7964 30.3433C39.0998 29.5383 39.0181 28.6517 38.5631 27.905ZM33.3014 34.345C33.0561 35.0242 32.6076 35.6113 32.0169 36.0267C31.4262 36.4421 30.7219 36.6655 29.9998 36.6667C29.0781 36.6667 28.1681 36.2933 27.5264 35.6283C27.1531 35.2783 26.8731 34.8117 26.7098 34.3333C26.8614 34.3567 27.0131 34.3683 27.1764 34.3917C27.4448 34.4267 27.7248 34.4617 28.0048 34.485C28.6698 34.5433 29.3464 34.5783 30.0231 34.5783C30.6881 34.5783 31.3531 34.5433 32.0064 34.485C32.2514 34.4617 32.4964 34.45 32.7298 34.415L33.3014 34.345Z" fill="white"/>
</svg>
