<svg width="60" height="50" viewBox="0 0 60 50" fill="none" xmlns="http://www.w3.org/2000/svg">
<path d="M41.117 29.585C40.9303 29.27 40.4053 28.78 39.0987 29.0133C38.3754 29.1417 37.6404 29.2 36.9054 29.165C35.5945 29.1056 34.3088 28.7838 33.1245 28.2186C31.9402 27.6535 30.8812 26.8566 30.0104 25.875C28.4937 24.1833 27.5604 21.9783 27.5487 19.5983C27.5487 18.2683 27.8054 16.985 28.3304 15.7717C28.8437 14.5933 28.482 13.975 28.2254 13.7183C27.957 13.45 27.327 13.0767 26.0904 13.59C21.3187 15.5967 18.367 20.38 18.717 25.5017C19.067 30.32 22.4504 34.4383 26.9304 35.99C28.0165 36.3689 29.1526 36.5852 30.302 36.6317C30.4887 36.6433 30.6754 36.655 30.862 36.655C34.7704 36.655 38.4337 34.8117 40.7437 31.6733C41.5254 30.5883 41.3153 29.9 41.117 29.585Z" fill="white"/>
<path d="M25.0091 31.1967C25.4277 31.1967 25.8422 31.1143 26.229 30.9541C26.6157 30.7939 26.9671 30.5591 27.2631 30.2631C27.5591 29.9671 27.7939 29.6157 27.9541 29.229C28.1143 28.8422 28.1967 28.4277 28.1967 28.0091C28.1967 27.5905 28.1143 27.176 27.9541 26.7893C27.7939 26.4025 27.5591 26.0511 27.2631 25.7551C26.9671 25.4591 26.6157 25.2243 26.229 25.0641C25.8422 24.9039 25.4277 24.8215 25.0091 24.8215C24.1637 24.8215 23.3529 25.1573 22.7551 25.7551C22.1573 26.3529 21.8215 27.1637 21.8215 28.0091C21.8215 28.8545 22.1573 29.6653 22.7551 30.2631C23.3529 30.8609 24.1637 31.1967 25.0091 31.1967ZM25.0091 33C24.7587 33 24.5537 32.8133 24.5537 32.5628V32.5264C24.5537 32.276 24.7587 32.071 25.0091 32.071C25.2596 32.071 25.4645 32.276 25.4645 32.5264C25.4645 32.7769 25.2596 33 25.0091 33ZM28.2605 31.7158C28.1421 31.7158 28.0282 31.6703 27.9372 31.5838L27.878 31.5246C27.8358 31.4824 27.8024 31.4324 27.7795 31.3773C27.7567 31.3222 27.745 31.2632 27.745 31.2036C27.745 31.1439 27.7567 31.0849 27.7795 31.0298C27.8024 30.9747 27.8358 30.9247 27.878 30.8825C27.9201 30.8404 27.9702 30.8069 28.0253 30.7841C28.0803 30.7613 28.1394 30.7495 28.199 30.7495C28.2586 30.7495 28.3177 30.7613 28.3727 30.7841C28.4278 30.8069 28.4779 30.8404 28.52 30.8825L28.5792 30.9417C28.6425 31.005 28.6856 31.0857 28.7032 31.1734C28.7207 31.2612 28.7119 31.3522 28.6778 31.435C28.6437 31.5178 28.5859 31.5886 28.5116 31.6386C28.4374 31.6886 28.35 31.7154 28.2605 31.7158ZM21.7577 31.7158C21.6393 31.7158 21.5255 31.6703 21.4344 31.5838C21.3922 31.5417 21.3587 31.4916 21.3359 31.4365C21.313 31.3814 21.3013 31.3224 21.3013 31.2628C21.3013 31.2031 21.313 31.1441 21.3359 31.089C21.3587 31.0339 21.3922 30.9838 21.4344 30.9417L21.4936 30.8825C21.5358 30.8404 21.5858 30.8069 21.6409 30.7841C21.696 30.7613 21.755 30.7495 21.8147 30.7495C21.8743 30.7495 21.9333 30.7613 21.9884 30.7841C22.0435 30.8069 22.0935 30.8404 22.1357 30.8825C22.1779 30.9247 22.2113 30.9747 22.2341 31.0298C22.2569 31.0849 22.2687 31.1439 22.2687 31.2036C22.2687 31.2632 22.2569 31.3222 22.2341 31.3773C22.2113 31.4324 22.1779 31.4824 22.1357 31.5246L22.0765 31.5838C21.99 31.6703 21.8716 31.7158 21.7577 31.7158ZM29.5628 28.4645H29.5264C29.276 28.4645 29.071 28.2596 29.071 28.0091C29.071 27.7587 29.276 27.5537 29.5264 27.5537C29.7769 27.5537 30 27.7587 30 28.0091C30 28.2596 29.8133 28.4645 29.5628 28.4645ZM20.4918 28.4645H20.4554C20.2049 28.4645 20 28.2596 20 28.0091C20 27.7587 20.2049 27.5537 20.4554 27.5537C20.7058 27.5537 20.929 27.7587 20.929 28.0091C20.929 28.2596 20.7423 28.4645 20.4918 28.4645ZM28.2013 25.2723C28.0829 25.2723 27.969 25.2268 27.878 25.1403C27.8357 25.0981 27.8023 25.0481 27.7794 24.993C27.7566 24.9379 27.7448 24.8789 27.7448 24.8192C27.7448 24.7596 27.7566 24.7005 27.7794 24.6454C27.8023 24.5903 27.8357 24.5403 27.878 24.4982L27.9372 24.439C27.9793 24.3968 28.0294 24.3634 28.0845 24.3406C28.1395 24.3177 28.1986 24.306 28.2582 24.306C28.3178 24.306 28.3769 24.3177 28.4319 24.3406C28.487 24.3634 28.5371 24.3968 28.5792 24.439C28.6214 24.4811 28.6548 24.5312 28.6777 24.5863C28.7005 24.6414 28.7122 24.7004 28.7122 24.76C28.7122 24.8196 28.7005 24.8787 28.6777 24.9338C28.6548 24.9888 28.6214 25.0389 28.5792 25.0811L28.52 25.1403C28.4335 25.2268 28.3197 25.2723 28.2013 25.2723ZM21.8169 25.2723C21.6985 25.2723 21.5847 25.2268 21.4936 25.1403L21.4344 25.0765C21.3923 25.0343 21.3588 24.9843 21.336 24.9292C21.3132 24.8741 21.3014 24.8151 21.3014 24.7555C21.3014 24.6958 21.3132 24.6368 21.336 24.5817C21.3588 24.5266 21.3923 24.4766 21.4344 24.4344C21.4766 24.3923 21.5266 24.3588 21.5817 24.336C21.6368 24.3132 21.6958 24.3014 21.7555 24.3014C21.8151 24.3014 21.8741 24.3132 21.9292 24.336C21.9843 24.3588 22.0343 24.3923 22.0765 24.4344L22.1357 24.4936C22.3133 24.6712 22.3133 24.9581 22.1357 25.1357C22.0492 25.2268 21.9308 25.2723 21.8169 25.2723ZM25.0091 23.929C24.7587 23.929 24.5537 23.7423 24.5537 23.4918V23.4554C24.5537 23.2049 24.7587 23 25.0091 23C25.2596 23 25.4645 23.2049 25.4645 23.4554C25.4645 23.7058 25.2596 23.929 25.0091 23.929Z" fill="white"/>
</svg>
