<svg width="28" height="28" viewBox="0 0 28 28" fill="none" xmlns="http://www.w3.org/2000/svg">
<path d="M21.8051 13.4517C21.1401 13.2767 20.3585 13.1833 19.4251 13.1833C18.1301 13.1833 17.6518 13.4983 16.9868 14C16.9518 14.0233 16.9168 14.0583 16.8818 14.0933L15.7735 15.2717C14.8518 16.2633 13.1601 16.2633 12.2268 15.2717L11.1185 14.105C11.0896 14.0644 11.0541 14.0289 11.0135 14C10.3368 13.4983 9.85846 13.1833 8.57512 13.1833C7.64179 13.1833 6.86012 13.265 6.19512 13.4517C3.41846 14.1983 3.41846 16.4033 3.41846 18.34V19.425C3.41846 22.3533 3.41846 25.6667 9.66012 25.6667H18.3401C22.4818 25.6667 24.5818 23.5667 24.5818 19.425V18.34C24.5818 16.4033 24.5818 14.1983 21.8051 13.4517Z" fill="white"/>
<path d="M17.255 2.33337H10.745C5.58838 2.33337 5.58838 5.07504 5.58838 7.49004V11.8067C5.63505 11.7834 5.69338 11.7717 5.74005 11.76C6.55671 11.5384 7.47838 11.4334 8.57505 11.4334C10.3717 11.4334 11.2234 11.9584 12.0634 12.6C12.18 12.6817 12.2967 12.7867 12.4017 12.9034L13.4984 14.0584C13.615 14.1867 13.8017 14.2567 14 14.2567C14.1984 14.2567 14.385 14.1867 14.49 14.07L15.61 12.8917C15.7034 12.7984 15.8084 12.6934 15.925 12.6117C16.7884 11.9584 17.6284 11.4334 19.425 11.4334C20.5217 11.4334 21.4434 11.5384 22.26 11.76C22.3067 11.7717 22.365 11.7834 22.4117 11.8067V7.49004C22.4117 5.07504 22.4117 2.33337 17.255 2.33337ZM15.8084 9.91671H12.1917C11.7484 9.91671 11.375 9.54337 11.375 9.10004C11.375 8.64504 11.7484 8.28337 12.1917 8.28337H15.8084C16.2517 8.28337 16.625 8.64504 16.625 9.10004C16.625 9.54337 16.2517 9.91671 15.8084 9.91671ZM16.7184 6.66171H11.2817C11.0671 6.65864 10.8624 6.57125 10.7118 6.41843C10.5611 6.2656 10.4767 6.05963 10.4767 5.84504C10.4767 5.39004 10.8384 5.02837 11.2817 5.02837H16.7184C17.1617 5.02837 17.5234 5.39004 17.5234 5.84504C17.5234 6.05963 17.439 6.2656 17.2883 6.41843C17.1377 6.57125 16.9329 6.65864 16.7184 6.66171Z" fill="white"/>
</svg>
