<svg width="28" height="28" viewBox="0 0 28 28" fill="none" xmlns="http://www.w3.org/2000/svg">
<path d="M25.0832 12.7167V4.78334C25.0832 3.03334 24.3365 2.33334 22.4815 2.33334H17.7682C15.9132 2.33334 15.1665 3.03334 15.1665 4.78334V12.7167C15.1665 14.4667 15.9132 15.1667 17.7682 15.1667H22.4815C24.3365 15.1667 25.0832 14.4667 25.0832 12.7167ZM12.8332 15.2833V23.2167C12.8332 24.9667 12.0865 25.6667 10.2315 25.6667H5.51817C3.66317 25.6667 2.9165 24.9667 2.9165 23.2167V15.2833C2.9165 13.5333 3.66317 12.8333 5.51817 12.8333H10.2315C12.0865 12.8333 12.8332 13.5333 12.8332 15.2833ZM25.0832 23.2167V19.95C25.0832 18.2 24.3365 17.5 22.4815 17.5H17.7682C15.9132 17.5 15.1665 18.2 15.1665 19.95V23.2167C15.1665 24.9667 15.9132 25.6667 17.7682 25.6667H22.4815C24.3365 25.6667 25.0832 24.9667 25.0832 23.2167ZM12.8332 8.05001V4.78334C12.8332 3.03334 12.0865 2.33334 10.2315 2.33334H5.51817C3.66317 2.33334 2.9165 3.03334 2.9165 4.78334V8.05001C2.9165 9.80001 3.66317 10.5 5.51817 10.5H10.2315C12.0865 10.5 12.8332 9.80001 12.8332 8.05001Z" fill="white"/>
</svg>
