<svg width="28" height="28" viewBox="0 0 28 28" fill="none" xmlns="http://www.w3.org/2000/svg">
<path d="M25.0834 12.7167V4.78337C25.0834 3.03337 24.3367 2.33337 22.4817 2.33337H17.7684C15.9134 2.33337 15.1667 3.03337 15.1667 4.78337V12.7167C15.1667 14.4667 15.9134 15.1667 17.7684 15.1667H22.4817C24.3367 15.1667 25.0834 14.4667 25.0834 12.7167ZM12.8334 15.2834V23.2167C12.8334 24.9667 12.0867 25.6667 10.2317 25.6667H5.51841C3.66341 25.6667 2.91675 24.9667 2.91675 23.2167V15.2834C2.91675 13.5334 3.66341 12.8334 5.51841 12.8334H10.2317C12.0867 12.8334 12.8334 13.5334 12.8334 15.2834ZM25.0834 23.2167V19.95C25.0834 18.2 24.3367 17.5 22.4817 17.5H17.7684C15.9134 17.5 15.1667 18.2 15.1667 19.95V23.2167C15.1667 24.9667 15.9134 25.6667 17.7684 25.6667H22.4817C24.3367 25.6667 25.0834 24.9667 25.0834 23.2167ZM12.8334 8.05004V4.78337C12.8334 3.03337 12.0867 2.33337 10.2317 2.33337H5.51841C3.66341 2.33337 2.91675 3.03337 2.91675 4.78337V8.05004C2.91675 9.80004 3.66341 10.5 5.51841 10.5H10.2317C12.0867 10.5 12.8334 9.80004 12.8334 8.05004Z" fill="white"/>
</svg>
