<svg width="30" height="30" viewBox="0 0 30 30" fill="none" xmlns="http://www.w3.org/2000/svg">
<path d="M21 2.5H17.75C13.75 2.5 11.25 5 11.25 9V14.0625H19.0625C19.575 14.0625 20 14.4875 20 15C20 15.5125 19.575 15.9375 19.0625 15.9375H11.25V21C11.25 25 13.75 27.5 17.75 27.5H20.9875C24.9875 27.5 27.4875 25 27.4875 21V9C27.5 5 25 2.5 21 2.5Z" fill="white"/>
<path d="M5.70127 14.0625L8.28877 11.475C8.47627 11.2875 8.56377 11.05 8.56377 10.8125C8.56377 10.575 8.47627 10.325 8.28877 10.15C8.11235 9.97565 7.87431 9.87787 7.62627 9.87787C7.37823 9.87787 7.14019 9.97565 6.96377 10.15L2.77627 14.3375C2.41377 14.7 2.41377 15.3 2.77627 15.6625L6.96377 19.85C7.32627 20.2125 7.92627 20.2125 8.28877 19.85C8.65127 19.4875 8.65127 18.8875 8.28877 18.525L5.70127 15.9375H11.2513V14.0625H5.70127Z" fill="white"/>
</svg>
