<svg width="44" height="44" viewBox="0 0 44 44" fill="none" xmlns="http://www.w3.org/2000/svg">
<rect width="44" height="44" rx="10" fill="url(#paint0_linear_1_132)"/>
<path d="M22 10.3333C18.9433 10.3333 16.4583 12.8183 16.4583 15.875C16.4583 18.8733 18.8033 21.3 21.86 21.405C21.9533 21.3933 22.0466 21.3933 22.1166 21.405H22.1983C23.6325 21.3572 24.992 20.7534 25.9891 19.7214C26.9863 18.6894 27.543 17.3101 27.5416 15.875C27.5416 12.8183 25.0566 10.3333 22 10.3333ZM27.9266 24.5072C24.6716 22.3372 19.3633 22.3372 16.085 24.5072C14.6033 25.4988 13.7866 26.8405 13.7866 28.2755C13.7866 29.7105 14.6033 31.0405 16.0733 32.0205C17.7066 33.1172 19.8533 33.6655 22 33.6655C24.1466 33.6655 26.2933 33.1172 27.9266 32.0205C29.3966 31.0288 30.2133 29.6988 30.2133 28.2522C30.2016 26.8172 29.3966 25.4872 27.9266 24.5072Z" fill="white"/>
<defs>
<linearGradient id="paint0_linear_1_132" x1="22" y1="0" x2="22" y2="44" gradientUnits="userSpaceOnUse">
<stop stop-color="#1A1A1A"/>
<stop offset="1" stop-color="#1A1A1A" stop-opacity="0.75"/>
</linearGradient>
</defs>
</svg>
