<svg width="44" height="44" viewBox="0 0 44 44" fill="none" xmlns="http://www.w3.org/2000/svg">
<rect width="44" height="44" rx="10" fill="url(#paint0_linear_1_127)"/>
<path d="M29 17C29.7956 17 30.5587 16.6839 31.1213 16.1213C31.6839 15.5587 32 14.7956 32 14C32 13.2044 31.6839 12.4413 31.1213 11.8787C30.5587 11.3161 29.7956 11 29 11C28.2044 11 27.4413 11.3161 26.8787 11.8787C26.3161 12.4413 26 13.2044 26 14C26 14.7956 26.3161 15.5587 26.8787 16.1213C27.4413 16.6839 28.2044 17 29 17Z" fill="#FF5050"/>
<path fill-rule="evenodd" clip-rule="evenodd" d="M29.6884 18.449C29.4619 18.4828 29.2319 18.5 29 18.5C27.7624 18.5 26.5754 18.0083 25.7002 17.1332C24.825 16.258 24.3334 15.071 24.3334 13.8333C24.3334 12.8428 24.6483 11.8847 25.2227 11.093C24.2483 10.6429 23.1644 10.3917 22.0234 10.3917C17.7884 10.4033 14.3467 13.8333 14.3467 18.0683V20.2383C14.3467 20.7983 14.0901 21.72 13.8101 22.1983L12.4917 24.3917C11.9901 25.2433 11.8734 26.2117 12.1884 27.0517C12.5034 27.9033 13.2151 28.58 14.1484 28.8833C15.4084 29.3033 16.6801 29.6067 17.9751 29.8283C18.0392 29.84 18.1034 29.8487 18.1676 29.8575C18.2317 29.8662 18.2959 29.875 18.3601 29.8867L18.8734 29.9567C19.1767 30.0033 19.4801 30.0383 19.7951 30.0617C21.2657 30.2003 22.7461 30.2003 24.2167 30.0617C24.485 30.0383 24.7535 30.015 25.0101 29.98C25.22 29.9567 25.4301 29.9333 25.6401 29.8983C25.7684 29.8867 25.8967 29.8633 26.0251 29.84C27.3317 29.63 28.6267 29.3033 29.8867 28.8833C30.3226 28.7376 30.7205 28.4965 31.0515 28.1777C31.3825 27.8588 31.6382 27.4701 31.8001 27.04C32.1267 26.165 32.0334 25.2083 31.5551 24.4033L30.2367 22.21C29.9451 21.7317 29.6884 20.81 29.6884 20.25V18.449Z" fill="white"/>
<path d="M24.0172 33.0267C24.6079 32.6113 25.0564 32.0242 25.3017 31.345L24.7301 31.415C24.5725 31.4386 24.4096 31.4516 24.245 31.4648C24.1659 31.4711 24.0863 31.4774 24.0067 31.485C23.3534 31.5433 22.6884 31.5783 22.0234 31.5783C21.3467 31.5783 20.6701 31.5433 20.0051 31.485C19.7251 31.4617 19.4451 31.4267 19.1767 31.3917C19.1 31.3807 19.0258 31.3723 18.9529 31.3641C18.8708 31.3548 18.7905 31.3457 18.7101 31.3333C18.8734 31.8117 19.1534 32.2783 19.5267 32.6283C20.1684 33.2933 21.0784 33.6667 22.0001 33.6667C22.7222 33.6655 23.4265 33.4421 24.0172 33.0267Z" fill="white"/>
<defs>
<linearGradient id="paint0_linear_1_127" x1="22" y1="0" x2="22" y2="44" gradientUnits="userSpaceOnUse">
<stop stop-color="#1A1A1A"/>
<stop offset="1" stop-color="#1A1A1A" stop-opacity="0.75"/>
</linearGradient>
</defs>
</svg>
