<svg width="44" height="44" viewBox="0 0 44 44" fill="none" xmlns="http://www.w3.org/2000/svg">
<rect width="44" height="44" rx="10" fill="url(#paint0_linear_1_123)"/>
<path fill-rule="evenodd" clip-rule="evenodd" d="M17.5575 11.25C16.4857 11.25 15.4953 11.8218 14.9594 12.75L10.4415 20.5753C9.90558 21.5035 9.90558 22.6471 10.4415 23.5753L14.9594 31.4006C15.4953 32.3289 16.4857 32.9006 17.5575 32.9006H26.5934C27.6652 32.9006 28.6556 32.3289 29.1915 31.4006L33.7094 23.5753C34.2453 22.6471 34.2453 21.5035 33.7094 20.5753L29.1915 12.75C28.6556 11.8218 27.6652 11.25 26.5934 11.25H17.5575ZM22.0001 26C24.2093 26 26.0001 24.2092 26.0001 22C26.0001 19.7908 24.2093 18 22.0001 18C19.791 18 18.0001 19.7908 18.0001 22C18.0001 24.2092 19.791 26 22.0001 26Z" fill="white"/>
<defs>
<linearGradient id="paint0_linear_1_123" x1="22" y1="0" x2="22" y2="44" gradientUnits="userSpaceOnUse">
<stop stop-color="#1A1A1A"/>
<stop offset="1" stop-color="#1A1A1A" stop-opacity="0.75"/>
</linearGradient>
</defs>
</svg>
