<svg width="28" height="28" viewBox="0 0 28 28" fill="none" xmlns="http://www.w3.org/2000/svg">
<path d="M14.7885 23.2855C15.1093 23.3601 15.1385 23.7801 14.8258 23.884L12.9825 24.4906C8.3508 25.984 5.91247 24.7356 4.40747 20.104L2.91413 15.4956C1.4208 10.864 2.65747 8.41396 7.28913 6.92063L7.90047 6.71763C8.37063 6.56246 8.82797 7.03379 8.6938 7.51096C8.62847 7.74663 8.56547 7.99396 8.50247 8.25063L7.35914 13.139C6.0758 18.634 7.95413 21.6673 13.4491 22.974L14.7885 23.2855Z" fill="white"/>
<path d="M20.0316 3.74387L18.0832 3.28887C14.1866 2.3672 11.8649 3.12554 10.4999 5.94887C10.1499 6.66054 9.86988 7.52387 9.63655 8.51554L8.49322 13.4039C7.34988 18.2805 8.85488 20.6839 13.7199 21.8389L15.6799 22.3055C16.3566 22.4689 16.9866 22.5739 17.5699 22.6205C21.2099 22.9705 23.1466 21.2672 24.1266 17.0555L25.2699 12.1789C26.4132 7.3022 24.9199 4.8872 20.0316 3.74387ZM17.8382 15.5505C17.7332 15.9472 17.3832 16.2039 16.9866 16.2039C16.9166 16.2039 16.8466 16.1922 16.7649 16.1805L13.3699 15.3172C13.1594 15.2478 12.983 15.101 12.8765 14.9066C12.77 14.7122 12.7413 14.4847 12.7961 14.2699C12.8509 14.0551 12.9852 13.8691 13.1718 13.7495C13.3584 13.6299 13.5835 13.5856 13.8016 13.6255L17.1966 14.4889C17.6749 14.6055 17.9549 15.0839 17.8382 15.5505ZM21.2566 11.6072C21.1516 12.0039 20.8016 12.2605 20.4049 12.2605C20.3349 12.2605 20.2649 12.2489 20.1832 12.2372L14.5249 10.8022C14.3144 10.7328 14.138 10.586 14.0315 10.3916C13.925 10.1972 13.8963 9.96966 13.9511 9.75488C14.0059 9.54009 14.1402 9.35411 14.3268 9.23451C14.5134 9.11491 14.7385 9.0706 14.9566 9.11054L20.6149 10.5455C21.0932 10.6505 21.3732 11.1289 21.2566 11.6072Z" fill="white"/>
</svg>
