<svg width="28" height="28" viewBox="0 0 28 28" fill="none" xmlns="http://www.w3.org/2000/svg">
<path d="M22.5631 16.905L21.3964 14.9683C21.1514 14.5366 20.9298 13.72 20.9298 13.2417V10.29C20.9284 8.98802 20.5584 7.71307 19.8626 6.61262C19.1668 5.51217 18.1737 4.6312 16.9981 4.07165C16.6981 3.53888 16.2604 3.09648 15.7309 2.79069C15.2014 2.4849 14.5995 2.32694 13.9881 2.33332C12.7164 2.33332 11.5731 3.02165 10.9664 4.10665C8.69144 5.23832 7.11644 7.58332 7.11644 10.29V13.2417C7.11644 13.72 6.89477 14.5366 6.64977 14.9566L5.47144 16.905C5.00477 17.6867 4.89977 18.55 5.19144 19.3433C5.47144 20.125 6.13644 20.7316 6.99977 21.0233C9.2631 21.7933 11.6431 22.1666 14.0231 22.1666C16.4031 22.1666 18.7831 21.7933 21.0464 21.035C21.8631 20.7666 22.4931 20.1483 22.7964 19.3433C23.0998 18.5383 23.0181 17.6516 22.5631 16.905ZM17.3014 23.345C17.0561 24.0242 16.6076 24.6113 16.0169 25.0267C15.4262 25.4421 14.7219 25.6655 13.9998 25.6666C13.0781 25.6666 12.1681 25.2933 11.5264 24.6283C11.1531 24.2783 10.8731 23.8116 10.7098 23.3333C10.8614 23.3566 11.0131 23.3683 11.1764 23.3916C11.4448 23.4266 11.7248 23.4616 12.0048 23.485C12.6698 23.5433 13.3464 23.5783 14.0231 23.5783C14.6881 23.5783 15.3531 23.5433 16.0064 23.485C16.2514 23.4616 16.4964 23.45 16.7298 23.415L17.3014 23.345Z" fill="white"/>
</svg>
