<svg width="16" height="16" viewBox="0 0 16 16" fill="none" xmlns="http://www.w3.org/2000/svg">
<g clip-path="url(#clip0_12_652)">
<path d="M15.5001 15.5L13.3335 13.3333M7.66683 14C8.49854 14 9.3221 13.8362 10.0905 13.5179C10.8589 13.1996 11.5571 12.7331 12.1452 12.145C12.7333 11.5569 13.1998 10.8587 13.5181 10.0903C13.8363 9.32194 14.0002 8.49838 14.0002 7.66668C14.0002 6.83497 13.8363 6.01141 13.5181 5.24302C13.1998 4.47462 12.7333 3.77644 12.1452 3.18833C11.5571 2.60023 10.8589 2.13372 10.0905 1.81544C9.3221 1.49716 8.49854 1.33334 7.66683 1.33334C5.98713 1.33334 4.37622 2.0006 3.18849 3.18833C2.00076 4.37606 1.3335 5.98697 1.3335 7.66668C1.3335 9.34638 2.00076 10.9573 3.18849 12.145C4.37622 13.3327 5.98713 14 7.66683 14Z" stroke="white" stroke-linecap="round" stroke-linejoin="round"/>
</g>
<defs>
<clipPath id="clip0_12_652">
<rect width="16" height="16" fill="white"/>
</clipPath>
</defs>
</svg>
