<svg width="28" height="28" viewBox="0 0 28 28" fill="none" xmlns="http://www.w3.org/2000/svg">
<path d="M6.99984 15.1666C3.77984 15.1666 1.1665 17.7683 1.1665 21C1.1665 24.2316 3.77984 26.8333 6.99984 26.8333C10.2198 26.8333 12.8332 24.22 12.8332 21C12.8332 17.78 10.2315 15.1666 6.99984 15.1666ZM4.61984 18.62H6.99984C7.21024 18.62 7.41203 18.7035 7.56081 18.8523C7.70959 19.0011 7.79317 19.2029 7.79317 19.4133C7.79317 19.6237 7.70959 19.8255 7.56081 19.9743C7.41203 20.123 7.21024 20.2066 6.99984 20.2066H4.61984C4.40943 20.2066 4.20764 20.123 4.05887 19.9743C3.91009 19.8255 3.8265 19.6237 3.8265 19.4133C3.8265 19.2029 3.91009 19.0011 4.05887 18.8523C4.20764 18.7035 4.40943 18.62 4.61984 18.62ZM9.37984 23.38H4.61984C4.40943 23.38 4.20764 23.2964 4.05887 23.1476C3.91009 22.9988 3.8265 22.797 3.8265 22.5866C3.8265 22.155 4.18817 21.7933 4.61984 21.7933H9.3915C9.83484 21.7933 10.1848 22.155 10.1848 22.5866C10.1848 23.0183 9.82317 23.38 9.37984 23.38Z" fill="white"/>
<path d="M19.8335 3.5H8.16683C4.66683 3.5 2.3335 5.25 2.3335 9.33333V12.9967C2.3335 13.8483 3.2085 14.385 3.99016 14.0467C5.33315 13.4638 6.81598 13.2815 8.26016 13.5217C11.3168 14.0233 13.8135 16.4383 14.4318 19.4717C14.6068 20.3583 14.6302 21.2217 14.5135 22.05C14.4202 22.7383 14.9802 23.345 15.6685 23.345H19.8335C23.3335 23.345 25.6668 21.595 25.6668 17.5117V9.33333C25.6668 5.25 23.3335 3.5 19.8335 3.5ZM20.3818 10.0217L16.7302 12.9383C15.9602 13.5567 14.9802 13.86 14.0002 13.86C13.0202 13.86 12.0285 13.5567 11.2702 12.9383L7.6185 10.0217C7.44 9.8735 7.32574 9.66202 7.29965 9.43151C7.27355 9.20099 7.33764 8.96933 7.4785 8.785C7.78183 8.41167 8.33016 8.34167 8.7035 8.645L12.3552 11.5617C13.2418 12.2733 14.7468 12.2733 15.6335 11.5617L19.2852 8.645C19.6585 8.34167 20.2185 8.4 20.5102 8.785C20.8135 9.15833 20.7552 9.71833 20.3818 10.0217Z" fill="white"/>
</svg>
