<svg width="24" height="24" viewBox="0 0 24 24" fill="none" xmlns="http://www.w3.org/2000/svg">
<path d="M23.117 16.5851C22.9303 16.2701 22.4053 15.7801 21.0987 16.0134C20.3754 16.1417 19.6404 16.2001 18.9054 16.1651C17.5945 16.1056 16.3088 15.7838 15.1245 15.2187C13.9402 14.6536 12.8812 13.8567 12.0104 12.8751C10.4937 11.1834 9.56035 8.97839 9.54868 6.59839C9.54868 5.26839 9.80535 3.98505 10.3304 2.77172C10.8437 1.59339 10.482 0.975054 10.2254 0.718388C9.95702 0.450054 9.32702 0.0767213 8.09035 0.590055C3.31868 2.59672 0.367016 7.38005 0.717016 12.5017C1.06702 17.3201 4.45035 21.4384 8.93035 22.9901C10.0165 23.369 11.1526 23.5852 12.302 23.6317C12.4887 23.6434 12.6754 23.6551 12.862 23.6551C16.7704 23.6551 20.4337 21.8117 22.7437 18.6734C23.5254 17.5884 23.3153 16.9001 23.117 16.5851Z" fill="white"/>
</svg>
